<?xml version="1.0" encoding="UTF-8"?>
<svg width="800" height="800" viewBox="0 0 800 800" xmlns="http://www.w3.org/2000/svg">
  <rect width="800" height="800" fill="#faf7ef" />
  <g transform="translate(100, 200)">
    <!-- a -->
    <path d="M250,280 C180,280 130,230 130,160 C130,90 180,40 250,40 C320,40 370,90 370,160 L370,280 L320,280 L320,160 C320,120 290,90 250,90 C210,90 180,120 180,160 C180,200 210,230 250,230 L320,230 L320,280 L250,280 Z" fill="#0d4e5f"/>
    <!-- i -->
    <path d="M390,280 L440,280 L440,100 L390,100 L390,280 Z" fill="#2d8a8c"/>
    <circle cx="415" cy="50" r="40" fill="#0d4e5f"/>
    <!-- c -->
    <path d="M600,180 C600,240 550,290 490,290 C430,290 380,240 380,180 C380,120 430,70 490,70 C550,70 600,120 600,180 Z M550,180 C550,145 525,120 490,120 C455,120 430,145 430,180 C430,215 455,240 490,240 C525,240 550,215 550,180 Z" fill="#4ac7b7"/>
  </g>
</svg>
